<svg xmlns="http://www.w3.org/2000/svg" viewBox="0 0 820 256" role="img" aria-labelledby="title desc">
  <title id="title">Doria logo</title>
  <desc id="desc">Doria logo: geometric D mark plus clean lowercase wordmark.</desc>
  <rect width="820" height="256" rx="40" fill="#0B1215"/>
  <g transform="translate(24 0)">
    <path fill="#0F6B4A" fill-rule="evenodd" d="
    M44 24
    H112
    C180 24 230 72 230 128
    C230 184 180 232 112 232
    H44
    C34 232 26 224 26 214
    V42
    C26 32 34 24 44 24
    Z
    M80 70
    V186
    H110
    C151 186 184 161 184 128
    C184 95 151 70 110 70
    H80
    Z"/>
    <path fill="#F7B538" d="M118 91 L168 128 L118 165 V141 L139 128 L118 115 Z"/>
  </g>
  <text x="330" y="161" font-family="Inter Display, Inter, ui-sans-serif, system-ui, -apple-system, BlinkMacSystemFont, Segoe UI, Roboto, Arial, sans-serif" font-size="96" font-weight="760" letter-spacing="-3" fill="#FFF7E8">doria</text>
</svg>